<svg version="1.0" xmlns="http://www.w3.org/2000/svg" width="32" height="30" viewBox="0 0 162.000000 152.000000" preserveAspectRatio="xMidYMid meet">

<!-- <g transform="translate(0.000000,152.000000) scale(0.100000,-0.100000)" fill="#76608a" stroke="none"> -->
<g transform="translate(0.000000,152.000000) scale(0.100000,-0.100000)" fill="#76608a" stroke="none">
<path d="M661 1490 c-273 -72 -481 -281 -551 -554 -32 -125 -25 -315 16 -420 6 -16 5 -17 -16 -6 -19 10 -25 9 -43 -9 -20 -19 -20 -22 -5 -54 19 -40 11 -59 -32 -77 -45 -18 -42 -60 5 -83 37 -18 43 -36 25 -83 -9 -23 -8 -31 8 -47 18 -18 21 -18 50 -3 39 20 58 13 72 -30 10 -28 16 -34 40 -34 23 0 30 5 35 30 9 41 37 55 72 37 16 -8 33 -12 39 -10 7 2 32 -10 57 -27 163 -110 406 -150 602 -100 343 88 575 385 575 735 0 350 -232 647 -575 735 -105 27 -271 27 -374 0z m369 -17 c261 -63 472 -270 542 -531 41 -156 22 -366 -48 -504 -62 -123 -148 -223 -257 -297 -238 -163 -574 -167 -818 -10 -35 22 -49 38 -53 62 -15 71 -13 81 22 96 25 12 32 21 32 43 0 23 -6 31 -30 39 -36 13 -46 41 -29 80 11 27 10 33 -8 51 -19 18 -22 19 -50 5 -36 -19 -54 -10 -69 35 -6 18 -14 32 -17 31 -4 -2 -17 -3 -30 -3 -17 0 -25 -8 -32 -33 -29 -97 -77 38 -77 218 0 251 115 471 322 612 174 118 390 157 600 106z m-747 -1095 c17 -21 22 -54 11 -82 -10 -26 -19 -19 -59 40 -29 44 -34 58 -23 65 18 12 49 1 71 -23z m-56 -58 l43 -60 -25 -6 c-32 -8 -73 18 -81 51 -7 27 2 75 14 74 4 0 26 -27 49 -59z"/>
<path d="M905 1408 c-20 -53 -181 -619 -177 -623 3 -3 27 -5 54 -5 58 0 58 14 -7 -152 -24 -60 -40 -108 -35 -106 4 2 76 86 158 188 l151 185 -65 3 c-35 2 -64 6 -64 9 0 3 50 100 110 215 61 115 110 211 110 214 0 9 -105 55 -157 69 -69 18 -72 18 -78 3z"/>
<path d="M691 1333 l-44 -16 6 -57 c5 -48 3 -60 -12 -74 -24 -22 -37 -20 -92 14 l-48 29 -36 -43 -36 -44 31 -51 c30 -49 31 -51 15 -81 -16 -31 -17 -31 -70 -25 -52 7 -55 6 -64 -18 -5 -14 -13 -41 -16 -60 -7 -34 -5 -36 44 -62 45 -25 51 -32 51 -61 0 -28 -6 -36 -47 -60 -27 -15 -50 -28 -51 -30 -2 -1 2 -28 9 -58 l12 -56 62 0 c56 0 63 -2 73 -25 10 -22 8 -33 -20 -81 l-31 -56 39 -39 39 -39 49 32 c45 30 50 31 75 17 24 -14 26 -20 26 -78 l0 -64 45 -13 c25 -8 48 -14 53 -14 4 0 19 25 34 55 23 47 31 55 55 55 24 0 32 -8 55 -55 26 -53 29 -55 58 -49 73 16 75 18 75 89 0 60 2 66 25 77 21 9 31 7 72 -20 l48 -32 40 40 39 40 -29 54 c-25 47 -28 58 -17 80 10 22 18 25 73 28 l63 3 11 53 c12 51 12 54 -11 68 -13 8 -35 21 -49 29 -19 12 -25 24 -25 50 0 32 5 38 50 63 32 17 48 32 45 42 -2 8 -9 35 -15 58 l-11 44 -58 -7 c-58 -7 -58 -7 -71 25 -12 28 -11 36 10 73 13 23 27 46 31 52 6 5 -8 26 -32 51 l-42 42 -31 -20 c-25 -16 -87 -100 -104 -140 -2 -5 15 -29 37 -54 60 -69 83 -140 79 -244 -3 -66 -9 -98 -30 -142 -106 -227 -405 -253 -543 -46 -126 192 -46 458 160 529 22 7 42 14 43 15 2 2 9 26 16 56 12 51 12 55 -18 111 -17 31 -35 57 -41 56 -5 0 -30 -8 -54 -16z"/>
</g>
</svg>
